<svg width="512" height="512" xmlns="http://www.w3.org/2000/svg">
 <defs>
  <filter id="svg_16_blur" x="-50%" y="-50%" width="200%" height="200%">
   <feGaussianBlur stdDeviation="0"/>
  </filter>
 </defs>
 <g>
  <title>background</title>
  <rect x="-1" y="-1" width="514" height="514" id="canvas_background" fill="none"/>
 </g>
 <g>
  <title>Layer 1</title>
  <path stroke="null" d="m415.640016,257.399995c0,99.233932 -78.416051,179.670743 -175.167974,179.682006l-0.01098,0c-96.740944,0 -175.167974,-80.448074 -175.167974,-179.682006c0,-99.245195 78.42703,-179.693268 175.167974,-179.693268l0.01098,0c96.751924,0.011263 175.167974,80.448074 175.167974,179.693268z" fill="#2FC1F1" id="svg_7"/>
  <path stroke="null" d="m240.461062,77.706726c96.751924,0 175.178954,80.448074 175.178954,179.693268c0,99.233932 -78.42703,179.682006 -175.178954,179.682006c-96.740944,0 -175.167974,-80.448074 -175.167974,-179.682006c0,-99.245195 78.42703,-179.693268 175.167974,-179.693268z" fill="#f7931a" id="svg_9"/>
  <path stroke="#526471" d="m501.893279,230.168384c-1.716105,-1.759204 -4.497229,-1.759204 -6.210041,0l-24.781976,25.4206c-0.454554,-62.470863 -24.366947,-121.130495 -67.47711,-165.351595c-43.527386,-44.647948 -101.401769,-69.237376 -162.96309,-69.237376c-127.076383,0 -230.461062,106.048874 -230.461062,236.399982s103.384679,236.399981 230.461062,236.399981c78.249161,0 150.493598,-40.202638 193.252415,-107.541156c1.324135,-2.085816 0.749904,-4.875539 -1.282413,-6.233797c-2.035611,-1.36051 -4.754152,-0.769229 -6.077189,1.315461c-41.132743,64.777424 -110.625702,103.449488 -185.892813,103.449488c-122.233297,0 -221.67741,-102.006761 -221.67741,-227.389977s99.444113,-227.389978 221.67741,-227.389978c121.628323,0 220.677172,101.003272 221.654353,225.533917l-24.738057,-25.37555c-1.716106,-1.759204 -4.49723,-1.759204 -6.210042,0c-1.716106,1.759203 -1.716106,4.611995 0,6.371199l32.257961,33.08924c0.823467,0.844687 1.941187,1.319965 3.105021,1.319965s2.281553,-0.475278 3.105021,-1.319965l32.25796,-33.08924c1.715008,-1.759204 1.715008,-4.611996 0,-6.371199z" fill="#707070" id="svg_10" stroke-width="14"/>
  <text stroke="#2d2d2d" fill="#707070" x="173.422658" y="228.928333" id="svg_16" font-size="24" font-family="Helvetica, Arial, sans-serif" text-anchor="start" xml:space="preserve" transform="matrix(9.723669917868502,0,0,10.885794317461938,-1578.719478971088,-2143.527936991886) " font-weight="bold" filter="url(#svg_16_blur)">2</text>
  <text stroke="#2d2d2d" fill="#707070" x="187.851847" y="228.818158" id="svg_18" font-size="24" font-family="Helvetica, Arial, sans-serif" text-anchor="start" xml:space="preserve" transform="matrix(9.723669917868502,0,0,10.885794317461938,-1578.719478971088,-2143.527936991886) " font-weight="bold" filter="url(#svg_16_blur)" font-style="normal">4</text>
 </g>
</svg>