<svg width="512" height="512" xmlns="http://www.w3.org/2000/svg">
 <defs>
  <linearGradient y2="Infinity" y1="Infinity" x2="Infinity" x1="Infinity" id="SVGID_1_">
   <stop stop-color="#000000" offset="0"/>
   <stop stop-color="#FFFFFF" stop-opacity="0" offset="1"/>
  </linearGradient>
 </defs>
 <g>
  <title>background</title>
  <rect fill="none" id="canvas_background" height="514" width="514" y="-1" x="-1"/>
 </g>
 <g>
  <title>Layer 1</title>
  <path id="svg_4" fill="#A7B7C1" d="m472.55,47.3c-0.01,0.59 -0.02,1.22 -0.03,1.88c-0.03,0.87 -0.06,1.8 -0.11,2.8c-0.03,0.47 -0.06,0.96 -0.08,1.47c-0.07,0.99 -0.15,2.04 -0.24,3.15c-0.01,0.14 -0.03,0.28 -0.04,0.42c-0.06,0.73 -0.13,1.49 -0.22,2.27c-0.19,1.84 -0.43,3.8 -0.72,5.89c-0.48,3.38 -1.1,7.08 -1.91,11.11c-0.12,0.62 -0.25,1.25 -0.39,1.89c-0.16,0.74 -0.32,1.49 -0.49,2.26c-0.12,0.52 -0.23,1.05 -0.35,1.58c-0.09,0.37 -0.18,0.74 -0.27,1.12c-0.13,0.57 -0.27,1.15 -0.42,1.74c-0.57,2.34 -1.2,4.78 -1.9,7.31c-0.21,0.74 -0.42,1.49 -0.64,2.25c-0.76,2.66 -1.59,5.4 -2.51,8.25c-0.28,0.86 -0.56,1.74 -0.86,2.63c-1.65,4.95 -3.53,10.17 -5.69,15.65c-6.47,-1.3 -12.82,-3.4 -18.89,-6.27c-8.38,-3.95 -16.23,-9.4 -23.16,-16.33c-0.2,-0.2 -0.41,-0.41 -0.61,-0.62c-11.6,-11.83 -18.93,-26.28 -21.99,-41.43c35.41,-13.95 60.12,-16.59 72.37,-16.84c5.23,-0.12 8.2,0.21 8.74,0.28c0.06,0.01 0.09,0.01 0.09,0.01s0.36,2.56 0.32,7.53z"/>
  <path id="svg_5" fill="#2FC1F1" d="m436.79,114.7c-8.38,-3.95 -16.23,-9.4 -23.16,-16.33c-0.2,-0.2 -0.41,-0.41 -0.61,-0.62c-11.6,-11.83 -18.93,-26.28 -21.99,-41.43c-35.68,14.06 -82.25,39.59 -137.91,85.72c-19.77,16.37 -40.7,35.36 -62.69,57.35l-25.7,25.7l58.66,58.66l47.51,47.51l16.01,16.01l25.7,-25.7c21.99,-21.99 40.98,-42.92 57.35,-62.69c46.13,-55.66 71.66,-102.23 85.72,-137.91c-6.47,-1.3 -12.82,-3.4 -18.89,-6.27zm-87.76,78.17c-9,0 -17.06,-3.97 -22.54,-10.25c-4.58,-5.26 -7.36,-12.13 -7.36,-19.65c0,-16.51 13.38,-29.89 29.9,-29.89c7.72,0 14.77,2.93 20.08,7.74c6.03,5.47 9.81,13.37 9.81,22.15c0,16.52 -13.38,29.9 -29.89,29.9z"/>
  <path id="svg_6" fill="#ECEFF0" d="m349.03,133.08c16.51,0 29.89,13.38 29.89,29.89c0,16.52 -13.38,29.9 -29.89,29.9c-16.52,0 -29.9,-13.38 -29.9,-29.9c0,-16.51 13.38,-29.89 29.9,-29.89z"/>
  <path id="svg_7" fill="#A7B7C1" d="m370.17,259.05c14.98,28.42 40.01,107.73 -65.76,213.5l-42.03,-42.03l-3.27,-55.09l7.92,7.92c5.17,5.17 13.56,5.17 18.74,-0.01l9.23,-9.23c5.18,-5.17 5.18,-13.57 0.01,-18.74l-8.1,-8.1l25.7,-25.7c21.99,-21.99 40.98,-42.92 57.35,-62.69l0.21,0.17z"/>
  <path id="svg_8" fill="#526471" d="m295.01,355.37c5.17,5.17 5.17,13.57 -0.01,18.74l-9.23,9.23c-5.18,5.18 -13.57,5.18 -18.74,0.01l-7.92,-7.92l-33.94,-33.93l-54.67,-54.67l-33.93,-33.94l-7.92,-7.92c-5.17,-5.17 -5.17,-13.56 0.01,-18.74l9.23,-9.23c5.18,-5.18 13.57,-5.18 18.74,-0.01l8.1,8.1l122.18,122.18l8.1,8.1z"/>
  <path id="svg_9" fill="#A7B7C1" d="m252.95,141.83l0.17,0.21c-19.77,16.37 -40.7,35.36 -62.69,57.35l-25.7,25.7l-8.1,-8.1c-5.17,-5.17 -13.56,-5.17 -18.74,0.01l-9.23,9.23c-5.18,5.18 -5.18,13.57 -0.01,18.74l7.92,7.92l-55.08,-3.27l-42.04,-42.03c105.77,-105.77 185.08,-80.74 213.5,-65.76z"/>
  <path id="svg_11" opacity="0.2" d="m73.47,241.6l55.08,3.27c0.03,0.03 0.07,0.07 0.1,0.1l7.92,7.92l-55.08,-3.27l-8.02,-8.02z"/>
  <path id="svg_12" opacity="0.2" d="m148.61,208.97l8.02,8.02c-5.17,-5.17 -13.56,-5.17 -18.74,0.01l-9.23,9.23c-5.15,5.15 -5.18,13.46 -0.11,18.64l-7.92,-7.92c-5.17,-5.17 -5.17,-13.56 0.01,-18.74l9.23,-9.23c5.18,-5.18 13.57,-5.18 18.74,-0.01z"/>
  <path id="svg_13" opacity="0.2" d="m253.12,142.04c-19.77,16.37 -40.7,35.36 -62.69,57.35l-25.7,25.7l-8.02,-8.02l25.7,-25.7c20.78,-20.78 40.62,-38.88 59.42,-54.63c4.29,1.69 8.01,3.45 11.12,5.09l0.17,0.21z"/>
  <path id="svg_15" opacity="0.2" d="m270.411,438.541l-3.27,-55.08c-0.03,-0.03 -0.07,-0.07 -0.1,-0.1l-7.92,-7.92l3.27,55.08l8.02,8.02z"/>
  <path id="svg_16" opacity="0.2" d="m303.041,363.401l-8.02,-8.02c5.17,5.17 5.17,13.56 -0.01,18.74l-9.23,9.23c-5.15,5.15 -13.46,5.18 -18.64,0.11l7.92,7.92c5.17,5.17 13.56,5.17 18.74,-0.01l9.23,-9.23c5.18,-5.18 5.18,-13.57 0.01,-18.74z"/>
  <path id="svg_17" opacity="0.2" d="m369.971,258.891c-16.37,19.77 -35.36,40.7 -57.35,62.69l-25.7,25.7l8.02,8.02l25.7,-25.7c20.78,-20.78 38.88,-40.62 54.63,-59.42c-1.69,-4.29 -3.45,-8.01 -5.09,-11.12l-0.21,-0.17z"/>
  <path id="svg_19" fill="none" d="m455.68,120.97c-14.06,35.68 -39.59,82.25 -85.72,137.91c-16.37,19.77 -35.36,40.7 -57.35,62.69l-25.7,25.7"/>
  <path id="svg_20" fill="none" d="m472.05,57.02c-0.06,0.73 -0.13,1.49 -0.22,2.27"/>
  <path id="svg_21" fill="none" d="m472.33,53.45c-0.07,1 -0.14,2.05 -0.24,3.15"/>
  <path id="svg_22" fill="none" d="m472.52,49.18c-0.02,0.87 -0.06,1.81 -0.11,2.8"/>
  <path id="svg_23" fill="none" d="m472.23,39.77c0.01,0 0.01,0 0.01,0s0.36,2.56 0.31,7.53"/>
  <path id="svg_24" fill="none" d="m164.73,225.09l25.7,-25.7c21.99,-21.99 42.92,-40.98 62.69,-57.35c55.66,-46.13 102.23,-71.66 137.91,-85.72"/>
  <path id="svg_25" fill="none" d="m170.5,286.83l-33.93,-33.94l-7.92,-7.92c-5.17,-5.17 -5.17,-13.56 0.01,-18.74l9.23,-9.23c5.18,-5.18 13.57,-5.18 18.74,-0.01l8.1,8.1l122.18,122.18l8.1,8.1c5.17,5.17 5.17,13.57 -0.01,18.74l-9.23,9.23c-5.18,5.18 -13.57,5.18 -18.74,0.01l-7.92,-7.92l-33.94,-33.93"/>
  <path id="svg_26" fill="none" d="m136.57,252.89l-55.08,-3.27l-42.04,-42.03c105.77,-105.77 185.08,-80.74 213.5,-65.76"/>
  <path id="svg_27" fill="none" d="m370.17,259.05c14.98,28.42 40.01,107.73 -65.76,213.5l-42.03,-42.03l-3.27,-55.09"/>
  <path id="svg_28" fill="none" d="m455.68,120.97c-15.41,-3.11 -30.1,-10.65 -42.05,-22.6c-11.95,-11.95 -19.49,-26.64 -22.6,-42.05c52.26,-20.58 81.2,-16.55 81.2,-16.55s0.36,2.56 0.32,7.53c-0.01,0.59 -0.02,1.22 -0.03,1.88c-0.03,0.87 -0.06,1.8 -0.11,2.8c-0.03,0.47 -0.06,0.96 -0.08,1.47c-0.07,0.99 -0.15,2.04 -0.24,3.15c-0.01,0.14 -0.03,0.28 -0.04,0.42c-0.06,0.73 -0.13,1.49 -0.22,2.27c-0.19,1.84 -0.43,3.8 -0.72,5.89c-0.48,3.38 -1.1,7.08 -1.91,11.11c-0.12,0.62 -0.25,1.25 -0.39,1.89c-0.16,0.74 -0.32,1.49 -0.49,2.26c-0.12,0.52 -0.23,1.05 -0.35,1.58c-0.09,0.37 -0.18,0.74 -0.27,1.12c-0.13,0.57 -0.27,1.15 -0.42,1.74c-0.57,2.34 -1.2,4.78 -1.9,7.31c-0.21,0.74 -0.42,1.49 -0.64,2.25c-0.76,2.66 -1.59,5.4 -2.51,8.25c-0.28,0.86 -0.56,1.74 -0.86,2.63c-1.65,4.95 -3.53,10.17 -5.69,15.65z"/>
  <path id="svg_29" fill="none" d="m349.03,133.08c16.51,0 29.89,13.38 29.89,29.89c0,16.52 -13.38,29.9 -29.89,29.9c-16.52,0 -29.9,-13.38 -29.9,-29.9c0,-16.51 13.38,-29.89 29.9,-29.89z"/>
  <line id="svg_30" y2="286.83" y1="341.5" x2="170.5" x1="225.17" fill="none"/>
  <path id="svg_33" fill="#ffc035" d="m125.73,390.27c-1.024,0 -2.047,-0.391 -2.829,-1.172c-1.562,-1.562 -1.562,-4.095 0,-5.656l58.66,-58.659c1.563,-1.563 4.096,-1.562 5.657,0c1.562,1.562 1.562,4.095 0,5.656l-58.66,58.659c-0.781,0.781 -1.805,1.172 -2.828,1.172z"/>
  <path id="svg_36" fill="#FFC035" d="m127.87,430.41c-1.024,0 -2.047,-0.391 -2.829,-1.172c-1.562,-1.562 -1.562,-4.095 0,-5.656l77.66,-77.66c1.563,-1.562 4.095,-1.563 5.657,0c1.562,1.562 1.562,4.095 0,5.656l-77.66,77.66c-0.781,0.782 -1.804,1.172 -2.828,1.172z"/>
  <path id="svg_39" fill="#FFC035" d="m175.45,425.11c-1.024,0 -2.047,-0.391 -2.829,-1.172c-1.562,-1.562 -1.562,-4.095 0,-5.656l51.22,-51.221c1.563,-1.563 4.095,-1.563 5.657,0c1.562,1.562 1.562,4.095 0,5.656l-51.22,51.221c-0.78,0.782 -1.804,1.172 -2.828,1.172z"/>
  <path id="svg_42" fill="#FFC035" d="m90.89,340.55c-1.024,0 -2.047,-0.391 -2.829,-1.172c-1.562,-1.562 -1.562,-4.095 0,-5.656l51.22,-51.22c1.563,-1.563 4.095,-1.563 5.657,0c1.562,1.562 1.562,4.095 0,5.656l-51.22,51.22c-0.781,0.781 -1.804,1.172 -2.828,1.172z"/>
  <path id="svg_45" fill="#FFC035" d="m85.59,388.13c-1.024,0 -2.047,-0.391 -2.829,-1.172c-1.562,-1.562 -1.562,-4.095 0,-5.656l77.66,-77.66c1.563,-1.563 4.095,-1.563 5.657,0c1.562,1.562 1.562,4.095 0,5.656l-77.66,77.66c-0.781,0.781 -1.804,1.172 -2.828,1.172z"/>
  <path id="svg_46" opacity="0.2" d="m472.55,47.3c-0.01,0.59 -0.02,1.22 -0.03,1.88c-0.03,0.87 -0.06,1.8 -0.11,2.8c-0.03,0.47 -0.06,0.96 -0.08,1.47c-0.07,0.99 -0.15,2.04 -0.24,3.15c-0.01,0.14 -0.03,0.28 -0.04,0.42c-0.06,0.73 -0.13,1.49 -0.22,2.27c-0.19,1.84 -0.43,3.8 -0.72,5.89c-0.48,3.38 -1.1,7.08 -1.91,11.11c-0.12,0.62 -0.25,1.25 -0.39,1.89c-0.16,0.74 -0.32,1.49 -0.49,2.26c-0.12,0.52 -0.23,1.05 -0.35,1.58c-0.09,0.37 -0.18,0.74 -0.27,1.12c-0.13,0.57 -0.27,1.15 -0.42,1.74c-0.57,2.34 -1.2,4.78 -1.9,7.31c-0.21,0.74 -0.42,1.49 -0.64,2.25c-0.76,2.66 -1.59,5.4 -2.51,8.25c-0.28,0.86 -0.56,1.74 -0.86,2.63c-1.65,4.95 -3.53,10.17 -5.69,15.65c-14.06,35.68 -39.59,82.25 -85.72,137.91c-16.37,19.77 -35.36,40.7 -57.35,62.69l-25.7,25.7l-16.01,-16.01c90.23,-78.14 139.52,-158.45 165.89,-216.56c15.78,-34.76 23.37,-61.57 26.61,-75.22c5.82,-0.13 8.83,0.29 8.83,0.29s0.36,2.56 0.32,7.53z"/>
  <path id="svg_47" opacity="0.2" fill="url(#SVGID_1_)" d="m472.55,47.3c-0.01,0.59 -0.02,1.22 -0.03,1.88c-0.03,0.87 -0.06,1.8 -0.11,2.8c-0.03,0.47 -0.06,0.96 -0.08,1.47c-0.07,0.99 -0.15,2.04 -0.24,3.15c-0.01,0.14 -0.03,0.28 -0.04,0.42c-0.06,0.73 -0.13,1.49 -0.22,2.27c-0.19,1.84 -0.43,3.8 -0.72,5.89c-0.48,3.38 -1.1,7.08 -1.91,11.11c-0.12,0.62 -0.25,1.25 -0.39,1.89c-0.16,0.74 -0.32,1.49 -0.49,2.26c-0.12,0.52 -0.23,1.05 -0.35,1.58c-0.09,0.37 -0.18,0.74 -0.27,1.12c-0.13,0.57 -0.27,1.15 -0.42,1.74c-0.57,2.34 -1.2,4.78 -1.9,7.31c-0.21,0.74 -0.42,1.49 -0.64,2.25c-0.76,2.66 -1.59,5.4 -2.51,8.25c-0.28,0.86 -0.56,1.74 -0.86,2.63c-1.65,4.95 -3.53,10.17 -5.69,15.65c-14.06,35.68 -39.59,82.25 -85.72,137.91c-16.37,19.77 -35.36,40.7 -57.35,62.69l-25.7,25.7l-16.01,-16.01l-47.51,-47.51l103.1,-101.13c5.48,6.28 13.54,10.25 22.54,10.25c16.51,0 29.89,-13.38 29.89,-29.9c0,-8.78 -3.78,-16.68 -9.81,-22.15l43.91,-43.07l59.12,-57.99c0.06,0.01 0.09,0.01 0.09,0.01s0.36,2.56 0.32,7.53z"/>
  <text font-weight="bold" stroke="#444444" transform="rotate(45 273.8033142089844,243.33718872070312) matrix(6.960910241764736,0,0,5.022037860274509,-1542.2329034916986,-942.6092030445292) " xml:space="preserve" text-anchor="start" font-family="Junction, sans-serif" font-size="23" id="svg_48" y="242.638089" x="252.592507" fill="#ffc035">₿</text>
 </g>
</svg>