<svg width="512" height="512" xmlns="http://www.w3.org/2000/svg">
 <defs>
  <linearGradient y2="Infinity" y1="Infinity" x2="Infinity" x1="Infinity" id="SVGID_1_">
   <stop stop-color="#000000" offset="0"/>
   <stop stop-color="#FFFFFF" stop-opacity="0" offset="1"/>
  </linearGradient>
  <linearGradient y2="Infinity" y1="Infinity" x2="Infinity" x1="Infinity" id="SVGID_2_">
   <stop stop-color="#000000" offset="0"/>
   <stop stop-color="#FFFFFF" stop-opacity="0" offset="1"/>
  </linearGradient>
 </defs>
 <g>
  <title>background</title>
  <rect fill="none" id="canvas_background" height="402" width="582" y="-1" x="-1"/>
 </g>
 <g>
  <title>Layer 1</title>
  <path id="svg_4" fill="#FFC035" d="m448.7,245.79c5.43,0 9.84,4.4 9.84,9.84s-4.41,9.85 -9.84,9.85l-87.05,0c-5.44,0 -9.85,-4.41 -9.85,-9.85c0,-2.72 1.1,-5.18 2.88,-6.96c1.79,-1.78 4.25,-2.88 6.97,-2.88l43.52,0l43.53,0z"/>
  <path id="svg_5" fill="#FFC035" d="m448.7,265.48c5.43,0 9.84,4.4 9.84,9.84s-4.41,9.85 -9.84,9.85l-87.05,0c-5.44,0 -9.85,-4.41 -9.85,-9.85c0,-2.72 1.1,-5.18 2.88,-6.96c1.79,-1.78 4.25,-2.88 6.97,-2.88l87.05,0z"/>
  <path id="svg_6" fill="#FFC035" d="m448.7,304.86c5.43,0 9.84,4.4 9.84,9.84s-4.41,9.85 -9.84,9.85l-87.05,0c-5.44,0 -9.85,-4.41 -9.85,-9.85c0,-2.72 1.1,-5.18 2.88,-6.96c1.79,-1.78 4.25,-2.88 6.97,-2.88l87.05,0z"/>
  <path id="svg_7" fill="#FFC035" d="m448.7,285.17c5.43,0 9.84,4.4 9.84,9.84s-4.41,9.85 -9.84,9.85l-87.05,0c-5.44,0 -9.85,-4.41 -9.85,-9.85c0,-2.72 1.1,-5.18 2.88,-6.96c1.79,-1.78 4.25,-2.88 6.97,-2.88l87.05,0z"/>
  <path id="svg_8" fill="#FFC035" d="m448.7,324.55c5.43,0 9.84,4.4 9.84,9.84c0,5.44 -4.41,9.85 -9.84,9.85l-87.05,0c-5.44,0 -9.85,-4.41 -9.85,-9.85c0,-2.72 1.1,-5.18 2.88,-6.96c1.79,-1.78 4.25,-2.88 6.97,-2.88l87.05,0z"/>
  <path id="svg_9" fill="#FFC035" d="m448.7,363.93c5.43,0 9.84,4.4 9.84,9.84c0,5.35 -4.27,9.71 -9.58,9.85c-0.09,-0.01 -0.17,-0.01 -0.26,-0.01l-87.05,0c-0.08,0 -0.17,0 -0.25,0.01c-5.32,-0.14 -9.6,-4.49 -9.6,-9.85c0,-2.72 1.1,-5.18 2.88,-6.96c1.79,-1.78 4.25,-2.88 6.97,-2.88l87.05,0z"/>
  <path id="svg_10" fill="#FFC035" d="m448.7,344.24c5.43,0 9.84,4.4 9.84,9.84c0,5.44 -4.41,9.85 -9.84,9.85l-87.05,0c-5.44,0 -9.85,-4.41 -9.85,-9.85c0,-2.72 1.1,-5.18 2.88,-6.96c1.79,-1.78 4.25,-2.88 6.97,-2.88l87.05,0z"/>
  <path id="svg_11" fill="#FFC035" d="m448.96,383.62c5.31,0.13 9.58,4.49 9.58,9.84s-4.27,9.71 -9.58,9.85c-0.09,-0.01 -0.17,-0.01 -0.26,-0.01l-87.05,0c-0.08,0 -0.17,0 -0.25,0.01c-5.32,-0.14 -9.6,-4.49 -9.6,-9.85c0,-2.72 1.1,-5.18 2.88,-6.96c1.74,-1.74 4.1,-2.82 6.72,-2.88c0.08,0 0.17,0 0.25,0l87.05,0c0.09,0 0.17,0 0.26,0z"/>
  <path id="svg_12" fill="#FFC035" d="m448.96,403.31c5.31,0.14 9.58,4.49 9.58,9.84c0,5.44 -4.41,9.84 -9.84,9.84l-87.05,0c-5.44,0 -9.85,-4.4 -9.85,-9.84c0,-2.72 1.1,-5.18 2.88,-6.97c1.74,-1.73 4.1,-2.81 6.72,-2.87c0.08,0 0.17,0 0.25,0l87.05,0c0.09,0 0.17,0 0.26,0z"/>
  <path id="svg_13" fill="#FFC035" d="m448.7,422.99c5.43,0 9.84,4.41 9.84,9.85s-4.41,9.85 -9.84,9.85l-87.05,0c-5.44,0 -9.85,-4.41 -9.85,-9.85c0,-2.72 1.1,-5.18 2.88,-6.96c1.79,-1.79 4.25,-2.89 6.97,-2.89l87.05,0z"/>
  <path id="svg_14" opacity="0.2" d="m458.54,432.84c0,5.44 -4.41,9.85 -9.84,9.85l-87.05,0c-5.44,0 -9.85,-4.41 -9.85,-9.85c0,-1.06 0.17,-2.09 0.48,-3.05c1.29,3.95 4.99,6.8 9.37,6.8l87.05,0c4.37,0 8.08,-2.85 9.36,-6.8c0.31,0.96 0.48,1.99 0.48,3.05z"/>
  <path id="svg_15" opacity="0.2" d="m458.54,413.14c0,5.44 -4.41,9.85 -9.84,9.85l-87.05,0c-5.44,0 -9.85,-4.41 -9.85,-9.85c0,-1.06 0.17,-2.09 0.48,-3.05c1.29,3.95 4.99,6.8 9.37,6.8l87.05,0c4.37,0 8.08,-2.85 9.36,-6.8c0.31,0.96 0.48,1.99 0.48,3.05z"/>
  <path id="svg_16" opacity="0.2" d="m458.54,393.44c0,5.44 -4.41,9.85 -9.84,9.85l-87.05,0c-5.44,0 -9.85,-4.41 -9.85,-9.85c0,-1.06 0.17,-2.09 0.48,-3.05c1.29,3.95 4.99,6.8 9.37,6.8l87.05,0c4.37,0 8.08,-2.85 9.36,-6.8c0.31,0.96 0.48,1.99 0.48,3.05z"/>
  <path id="svg_17" opacity="0.2" d="m458.54,373.74c0,5.44 -4.41,9.85 -9.84,9.85l-87.05,0c-5.44,0 -9.85,-4.41 -9.85,-9.85c0,-1.06 0.17,-2.09 0.48,-3.05c1.29,3.95 4.99,6.8 9.37,6.8l87.05,0c4.37,0 8.08,-2.85 9.36,-6.8c0.31,0.96 0.48,1.99 0.48,3.05z"/>
  <path id="svg_18" opacity="0.2" d="m458.54,354.04c0,5.44 -4.41,9.85 -9.84,9.85l-87.05,0c-5.44,0 -9.85,-4.41 -9.85,-9.85c0,-1.06 0.17,-2.09 0.48,-3.05c1.29,3.95 4.99,6.8 9.37,6.8l87.05,0c4.37,0 8.08,-2.85 9.36,-6.8c0.31,0.96 0.48,1.99 0.48,3.05z"/>
  <path id="svg_19" opacity="0.2" d="m458.54,334.34c0,5.44 -4.41,9.85 -9.84,9.85l-87.05,0c-5.44,0 -9.85,-4.41 -9.85,-9.85c0,-1.06 0.17,-2.09 0.48,-3.05c1.29,3.95 4.99,6.8 9.37,6.8l87.05,0c4.37,0 8.08,-2.85 9.36,-6.8c0.31,0.96 0.48,1.99 0.48,3.05z"/>
  <path id="svg_20" opacity="0.2" d="m458.54,314.64c0,5.44 -4.41,9.85 -9.84,9.85l-87.05,0c-5.44,0 -9.85,-4.41 -9.85,-9.85c0,-1.06 0.17,-2.09 0.48,-3.05c1.29,3.95 4.99,6.8 9.37,6.8l87.05,0c4.37,0 8.08,-2.85 9.36,-6.8c0.31,0.96 0.48,1.99 0.48,3.05z"/>
  <path id="svg_21" opacity="0.2" d="m458.54,294.94c0,5.44 -4.41,9.85 -9.84,9.85l-87.05,0c-5.44,0 -9.85,-4.41 -9.85,-9.85c0,-1.06 0.17,-2.09 0.48,-3.05c1.29,3.95 4.99,6.8 9.37,6.8l87.05,0c4.37,0 8.08,-2.85 9.36,-6.8c0.31,0.96 0.48,1.99 0.48,3.05z"/>
  <path id="svg_22" opacity="0.2" d="m458.54,275.24c0,5.44 -4.41,9.85 -9.84,9.85l-87.05,0c-5.44,0 -9.85,-4.41 -9.85,-9.85c0,-1.06 0.17,-2.09 0.48,-3.05c1.29,3.95 4.99,6.8 9.37,6.8l87.05,0c4.37,0 8.08,-2.85 9.36,-6.8c0.31,0.96 0.48,1.99 0.48,3.05z"/>
  <path id="svg_23" opacity="0.2" d="m458.54,255.54c0,5.44 -4.41,9.85 -9.84,9.85l-87.05,0c-5.44,0 -9.85,-4.41 -9.85,-9.85c0,-1.06 0.17,-2.09 0.48,-3.05c1.29,3.95 4.99,6.8 9.37,6.8l87.05,0c4.37,0 8.08,-2.85 9.36,-6.8c0.31,0.96 0.48,1.99 0.48,3.05z"/>
  <polygon id="svg_24" points="310.2300109863281,416.8900146484375 310.2300109863281,440.95001220703125 254.88999938964844,440.95001220703125 105.05000305175781,440.95001220703125 49.709999084472656,440.95001220703125 49.709999084472656,416.8900146484375 101.30000305175781,416.8900146484375 258.6400146484375,416.8900146484375 " fill="#303C44"/>
  <path id="svg_25" fill="#FFC035" d="m462.29,188.66c0,31.55 -25.57,57.13 -57.12,57.13s-57.12,-25.58 -57.12,-57.13c0,-31.54 25.57,-57.12 57.12,-57.12s57.12,25.58 57.12,57.12z"/>
  <rect stroke="null" id="svg_26" y="69.32" x="49.71" width="260.52" height="24.06" fill="#303C44"/>
  <path id="svg_27" fill="#ECEFF0" d="m310.23,93.38l0,21.73c0,30.6 -10.55,58.73 -28.22,80.96l-204.09,0c-17.66,-22.23 -28.21,-50.36 -28.21,-80.96l0,-21.73l260.52,0z"/>
  <path id="svg_28" fill="#007ECA" d="m282.01,196.07c-20.63,25.98 -50.99,43.9 -85.58,48.26l0,11.3l-32.92,0l0,-11.3c-34.59,-4.36 -64.95,-22.28 -85.58,-48.26l204.08,0z"/>
  <path id="svg_29" fill="#007ECA" d="m179.97,287.46c7.21,0 13.05,5.85 13.05,13.05c0,7.21 -5.84,13.05 -13.05,13.05c-7.21,0 -13.05,-5.84 -13.05,-13.05c0,-7.2 5.84,-13.05 13.05,-13.05z"/>
  <path id="svg_30" fill="#007ECA" d="m258.64,416.89l-157.34,0c0,-43.45 35.22,-78.67 78.66,-78.67l0.01,0c43.46,0.01 78.67,35.22 78.67,78.67z"/>
  <path id="svg_31" fill="#ECEFF0" d="m196.43,265.94l0,-10.31l-32.92,0l0,10.31c-64.18,8.09 -113.8,62.87 -113.8,129.22l0,21.73l51.59,0c0,-43.45 35.22,-78.67 78.66,-78.67l0.01,0c43.46,0.01 78.67,35.22 78.67,78.67l51.59,0l0,-21.73c0,-66.35 -49.63,-121.13 -113.8,-129.22zm-16.46,47.62c-7.21,0 -13.05,-5.84 -13.05,-13.05c0,-7.2 5.84,-13.05 13.05,-13.05c7.21,0 13.05,5.85 13.05,13.05c0,7.21 -5.84,13.05 -13.05,13.05z"/>
  <path id="svg_32" opacity="0.2" d="m196.64,244.33c34.59,-4.36 64.95,-22.28 85.58,-48.26c17.67,-22.23 28.22,-50.36 28.22,-80.96l0,-21.73l-16.67,0l0,21.73c0,30.6 -10.55,58.73 -28.22,80.96c-20.63,25.98 -50.99,43.9 -85.58,48.26l0,11.3l0,10.31c64.17,8.09 113.8,62.87 113.8,129.22l0,21.73l16.67,0l0,-21.73c0,-66.35 -49.63,-121.13 -113.8,-129.22l0,-10.31l0,-11.3z"/>
  <path stroke="null" id="svg_34" fill="none" d="m47.960475,59.056297c1.095236,1.800095 1.749524,4.077949 1.749524,6.555813l0,1.759608l0,1.948281l-16.156898,0l0,-1.948281l0,-1.759608c0,-2.477864 0.654289,-4.755718 1.750145,-6.555813c1.279429,-2.103755 3.162292,-3.554844 5.30749,-3.9079l0,-0.915028l0,-0.834862c-3.979687,-0.655095 -7.057635,-5.090958 -7.057635,-10.463713l0,-1.759608l0,-1.948281l3.43207,0"/>
  <path id="svg_35" fill="none" d="m105.05,440.95l-55.34,0l0,-24.06l0,-21.73c0,-66.35 49.62,-121.13 113.8,-129.22l0,-10.31l0,-11.3c-34.59,-4.36 -64.95,-22.28 -85.58,-48.26"/>
  <line id="svg_36" y2="93.38" y1="93.38" x2="310.23" x1="49.71" fill="none"/>
  <polyline id="svg_37" points="49.709999084472656,416.8900146484375 101.30000305175781,416.8900146484375 258.6400146484375,416.8900146484375 310.2300109863281,416.8900146484375 " fill="none"/>
  <path id="svg_38" fill="none" d="m448.7,422.99c5.43,0 9.84,4.41 9.84,9.85s-4.41,9.85 -9.84,9.85l-87.05,0c-5.44,0 -9.85,-4.41 -9.85,-9.85c0,-2.72 1.1,-5.18 2.88,-6.96c1.79,-1.79 4.25,-2.89 6.97,-2.89"/>
  <path id="svg_39" fill="none" d="m448.96,403.31c5.31,0.14 9.58,4.49 9.58,9.84c0,5.44 -4.41,9.84 -9.84,9.84l-87.05,0c-5.44,0 -9.85,-4.4 -9.85,-9.84c0,-2.72 1.1,-5.18 2.88,-6.97c1.74,-1.73 4.1,-2.81 6.72,-2.87c0.08,-0.01 0.17,-0.01 0.25,-0.01l87.05,0c0.09,0 0.17,0 0.26,0.01z"/>
  <path id="svg_40" fill="none" d="m448.96,383.62c5.31,0.13 9.58,4.49 9.58,9.84s-4.27,9.71 -9.58,9.85c-0.09,0 -0.17,0 -0.26,0l-87.05,0c-0.08,0 -0.17,0 -0.25,0c-5.32,-0.14 -9.6,-4.49 -9.6,-9.85c0,-2.72 1.1,-5.18 2.88,-6.96c1.74,-1.74 4.1,-2.82 6.72,-2.88c0.08,-0.01 0.17,-0.01 0.25,-0.01l87.05,0c0.09,0 0.17,0 0.26,0.01z"/>
  <path id="svg_41" fill="none" d="m448.7,363.93c5.43,0 9.84,4.4 9.84,9.84c0,5.35 -4.27,9.71 -9.58,9.85c-0.09,0 -0.17,0 -0.26,0l-87.05,0c-0.08,0 -0.17,0 -0.25,0c-5.32,-0.14 -9.6,-4.49 -9.6,-9.85c0,-2.72 1.1,-5.18 2.88,-6.96c1.79,-1.78 4.25,-2.88 6.97,-2.88"/>
  <path id="svg_42" fill="none" d="m448.7,344.24c5.43,0 9.84,4.4 9.84,9.84c0,5.44 -4.41,9.85 -9.84,9.85l-87.05,0c-5.44,0 -9.85,-4.41 -9.85,-9.85c0,-2.72 1.1,-5.18 2.88,-6.96c1.79,-1.78 4.25,-2.88 6.97,-2.88"/>
  <path id="svg_43" fill="none" d="m448.7,324.55c5.43,0 9.84,4.4 9.84,9.84c0,5.44 -4.41,9.85 -9.84,9.85l-87.05,0c-5.44,0 -9.85,-4.41 -9.85,-9.85c0,-2.72 1.1,-5.18 2.88,-6.96c1.79,-1.78 4.25,-2.88 6.97,-2.88"/>
  <path id="svg_44" fill="none" d="m448.7,304.86c5.43,0 9.84,4.4 9.84,9.84s-4.41,9.85 -9.84,9.85l-87.05,0c-5.44,0 -9.85,-4.41 -9.85,-9.85c0,-2.72 1.1,-5.18 2.88,-6.96c1.79,-1.78 4.25,-2.88 6.97,-2.88"/>
  <path id="svg_45" fill="none" d="m448.7,285.17c5.43,0 9.84,4.4 9.84,9.84s-4.41,9.85 -9.84,9.85l-87.05,0c-5.44,0 -9.85,-4.41 -9.85,-9.85c0,-2.72 1.1,-5.18 2.88,-6.96c1.79,-1.78 4.25,-2.88 6.97,-2.88"/>
  <path id="svg_46" fill="none" d="m448.7,265.48c5.43,0 9.84,4.4 9.84,9.84s-4.41,9.85 -9.84,9.85l-87.05,0c-5.44,0 -9.85,-4.41 -9.85,-9.85c0,-2.72 1.1,-5.18 2.88,-6.96c1.79,-1.78 4.25,-2.88 6.97,-2.88"/>
  <path id="svg_47" fill="none" d="m405.17,245.79l43.53,0c5.43,0 9.84,4.4 9.84,9.84s-4.41,9.85 -9.84,9.85l-87.05,0c-5.44,0 -9.85,-4.41 -9.85,-9.85c0,-2.72 1.1,-5.18 2.88,-6.96c1.79,-1.78 4.25,-2.88 6.97,-2.88l43.52,0z"/>
  <path id="svg_48" fill="none" d="m405.17,131.54c31.55,0 57.12,25.58 57.12,57.12c0,31.55 -25.57,57.13 -57.12,57.13s-57.12,-25.58 -57.12,-57.13c0,-31.54 25.57,-57.12 57.12,-57.12z"/>
  <line id="svg_50" y2="440.95" y1="440.95" x2="105.05" x1="254.89" fill="none"/>
  <path id="svg_51" fill="none" d="m101.3,416.89c0,-43.45 35.22,-78.67 78.66,-78.67c43.46,0 78.68,35.22 78.68,78.67"/>
  <polyline id="svg_52" points="282.0199890136719,196.07000732421875 282.010009765625,196.07000732421875 77.93000030517578,196.07000732421875 77.91999816894531,196.07000732421875 " fill="none"/>
  <line id="svg_53" y2="255.63" y1="255.63" x2="163.51" x1="196.43" fill="none"/>
  <path id="svg_54" fill="none" d="m179.97,287.46c7.21,0 13.05,5.85 13.05,13.05c0,7.21 -5.84,13.05 -13.05,13.05c-7.21,0 -13.05,-5.84 -13.05,-13.05c0,-7.2 5.84,-13.05 13.05,-13.05z"/>
  <path id="svg_55" opacity="0.2" fill="url(#SVGID_1_)" d="m462.29,188.66c0,31.55 -25.57,57.13 -57.12,57.13l0,-114.25c31.55,0 57.12,25.58 57.12,57.12z"/>
  <path id="svg_56" opacity="0.2" fill="url(#SVGID_2_)" d="m196.43,265.94c64.17,8.09 113.8,62.87 113.8,129.22l0,21.73l-130.26,0l0,-323.51l130.26,0l0,21.73c0,30.6 -10.55,58.73 -28.22,80.96c-20.63,25.98 -50.99,43.9 -85.58,48.26l0,21.61z"/>
  <text font-weight="bold" stroke="#3d3d3d" transform="matrix(4.811662197113036,0,0,3.3148508071899414,-1503.1791318729518,-397.5836650580168) " xml:space="preserve" text-anchor="start" font-family="Helvetica, Arial, sans-serif" font-size="24" id="svg_57" y="185.438353" x="388.584812" fill="#ff7f00">₿</text>
 </g>
</svg>